<svg width="146" height="122" viewBox="0 0 146 122" fill="none" xmlns="http://www.w3.org/2000/svg">
<path d="M3.32195 42.5244C6.12741 30.5301 18 16.5 28.5 11.5C35 7.5 46.1002 4.05126 48.3274 3.55129C55.0239 2.048 61.8502 1.38137 68.6982 1.56158C91.5937 2.16409 93.5 3.55129 106.5 8.5C112.846 10.9158 122 17 132 29C135 34.5 142 45.5 143 53.5C144.488 65.4073 142.868 75.4233 137.549 86.1086C133.016 95.2136 124.942 101.957 116.451 107.269C102.817 115.8 87.7388 120.614 71.5407 119.586C54.2794 118.491 37.129 111.81 22.9664 102.026C13.1171 95.2222 6.19735 87.4098 3.44828 75.6231C0.939443 64.8665 0.803905 53.29 3.32195 42.5244Z" stroke="black" stroke-width="3" stroke-linecap="round"/>
<path d="M46 90.4656C47 88.5 49.046 88.1917 50.2637 88.1917C53.5 88.1917 54.1568 89.066 55.5 90C57.5 91.7289 62.8732 94.7039 66.592 91.7289C69.4004 89.4822 73.4792 86.8781 76.9511 85.8861C80.7412 84.8032 84.4434 88.7602 88.6367 88.7602C90.0106 88.7602 92.5 88.7602 95 87C96.5821 85.8861 97.9009 85.023 98.8695 83.3279C100.451 80.5611 104.361 75.9848 108.092 78.9695C109.001 79.6973 112.709 80.8013 113.934 80.8013C116.302 80.8013 117.098 79.6945 119.082 79.1274C122.102 78.2648 123.997 72.501 122.746 70" stroke="black" stroke-width="3" stroke-linecap="round"/>
<path d="M25 34.5C25 29 25 28.213 29.785 25.8204C34.5701 23.4279 41.1548 25 38.9125 31.0948C37.6596 34.5 32.6275 36.3803 32.6275 41.3276C32.6275 45.5552 36.5287 49.5 40.5 49.5" stroke="black" stroke-width="3" stroke-linecap="round"/>
<path d="M87.5 25C87.5 20.7368 88 18.5 93 16.5C97.3151 16.5 99.5 16 101.5 21C101.5 23.0236 102.024 25.9761 100.5 27.5C99.6419 28.358 97.3201 30.8795 97 32C95.7479 36.3822 99.4031 38.2015 103 40" stroke="black" stroke-width="3" stroke-linecap="round"/>
<circle cx="109.5" cy="49.5" r="4.5" fill="black"/>
<circle cx="46.5" cy="59.5" r="5.5" fill="black"/>
</svg>
